<?xml version="1.0" encoding="UTF-8"?>
<svg xmlns="http://www.w3.org/2000/svg" viewBox="0 0 192 192"><path d="M140 16H52v49.9L89.6 96 52 126.1V176h68c-3-2.3-5.7-5-8-8H60v-5.5l36-18 8.3 4.1c-.2-1.5-.3-3-.3-4.6 0-1.5.1-2.9.2-4.4l-8.2-4.1-36 18v-23.6l32-25.6V124h8v-19.7l15.1 12.1c1.9-2 3.9-3.7 6.2-5.3L102.4 96 140 65.9V16zM96 90.9L67.4 68h57.2L96 90.9zM132 60H60V24h72v36zm12 52c-5.9 0-11.4 1.6-16.1 4.4a32.1 32.1 0 0 0-6.5 5c-5.7 5.7-9.2 13.5-9.3 22.1v.5c0 3.2.5 6.2 1.3 9.1 1.7 5.8 5.1 10.9 9.5 14.9 4.7 4.1 10.6 6.9 17.2 7.8 1.3.2 2.7.2 4 .2 17.7 0 32-14.4 32-32-.1-17.7-14.4-32-32.1-32zm0 56c-1.4 0-2.7-.1-4-.3-2.9-.5-5.6-1.5-8-2.9-2.5-1.4-4.7-3.3-6.6-5.6-2.7-3.2-4.5-7.2-5.2-11.5-.2-1.2-.3-2.4-.3-3.7 0-6.9 3-13.2 7.7-17.5 2.1-1.9 4.4-3.5 7.1-4.6 2.9-1.2 6-1.9 9.3-1.9 13.2 0 24 10.8 24 24s-10.8 24-24 24zm16-28v8h-12v12h-8v-12h-12v-8h12v-12h8v12h12z" style="fill: #9e2896;"/></svg>
