<?xml version="1.0" encoding="UTF-8"?>
<svg xmlns="http://www.w3.org/2000/svg" viewBox="0 0 192 192"><path d="M136.001 87.999c-8.822 0-16 7.178-16 16s7.178 16 16 16 16-7.178 16-16-7.178-16-16-16zm0 24c-4.411 0-8-3.589-8-8s3.589-8 8-8 8 3.589 8 8-3.589 8-8 8zm39.317-15.336l-.502-2.705-9.03-1.665c-.142-.362-.29-.72-.447-1.078l5.21-7.564-1.558-2.267a40.007 40.007 0 0 0-10.375-10.376l-2.268-1.557-7.563 5.21a32.329 32.329 0 0 0-1.078-.448l-1.665-9.03-2.705-.502a39.974 39.974 0 0 0-14.672 0l-2.706.502-1.664 9.03a32.34 32.34 0 0 0-1.078.448l-7.564-5.21-2.267 1.557a40.007 40.007 0 0 0-10.376 10.376l-1.557 2.267 5.21 7.564c-.157.357-.306.716-.448 1.078l-9.03 1.665-.502 2.705c-.453 2.44-.682 4.909-.682 7.336s.23 4.896.682 7.336l.502 2.706 9.03 1.664c.142.361.291.72.447 1.077l-5.209 7.564 1.557 2.268a40.007 40.007 0 0 0 10.376 10.375l2.267 1.557 7.56-5.207c.36.158.72.307 1.083.45l1.663 9.025 2.706.502c2.442.454 4.91.683 7.336.683 2.425 0 4.893-.23 7.336-.683l2.705-.502 1.665-9.03c.361-.142.72-.29 1.077-.447l7.564 5.21 2.268-1.558a40.007 40.007 0 0 0 10.375-10.375l1.557-2.268-5.209-7.564c.156-.356.305-.716.448-1.077l9.03-1.664.501-2.706c.453-2.442.683-4.91.683-7.336s-.23-4.894-.683-7.336zm-7.48 10.529l-8.173 1.506-.71 2.324a23.857 23.857 0 0 1-1.758 4.236l-1.143 2.146 4.717 6.849a31.934 31.934 0 0 1-4.516 4.516l-6.849-4.717-2.146 1.143a23.856 23.856 0 0 1-4.236 1.757l-2.324.71-1.506 8.173a31.295 31.295 0 0 1-6.386 0l-1.508-8.179-2.332-.706a23.204 23.204 0 0 1-4.227-1.755l-2.146-1.143-6.848 4.717a31.934 31.934 0 0 1-4.516-4.516l4.716-6.849-1.142-2.146a23.856 23.856 0 0 1-1.758-4.236l-.71-2.324-8.173-1.506a31.702 31.702 0 0 1-.163-3.193c0-1.056.055-2.124.163-3.193l8.173-1.507.71-2.324a23.885 23.885 0 0 1 1.758-4.236l1.142-2.146-4.716-6.848a31.93 31.93 0 0 1 4.515-4.516l6.85 4.717 2.146-1.143a23.786 23.786 0 0 1 4.235-1.758l2.324-.71 1.507-8.173a31.434 31.434 0 0 1 6.386 0l1.506 8.173 2.324.71a23.787 23.787 0 0 1 4.235 1.758l2.147 1.143 6.85-4.717a31.931 31.931 0 0 1 4.515 4.516l-4.717 6.848 1.143 2.146a23.884 23.884 0 0 1 1.757 4.236l.71 2.324 8.173 1.507c.11 1.07.164 2.138.164 3.193s-.055 2.123-.164 3.193zM52 128c-6.616 0-12 5.383-12 12s5.384 12 12 12 12-5.383 12-12-5.383-12-12-12zm0 16c-2.205 0-4-1.794-4-4s1.795-4 4-4 4 1.794 4 4-1.794 4-4 4zm34.884-13.307l-8.085-1.49c-.07-.173-.141-.345-.214-.516l4.664-6.773-1.557-2.268a36.025 36.025 0 0 0-9.337-9.337l-2.268-1.558-6.773 4.665a26.137 26.137 0 0 0-.515-.214l-1.49-8.085-2.706-.502a35.904 35.904 0 0 0-13.205 0l-2.705.502-1.49 8.085c-.173.07-.345.141-.516.214l-6.772-4.665-2.268 1.558a36.006 36.006 0 0 0-9.338 9.337l-1.557 2.268 4.665 6.773c-.074.17-.145.343-.215.516l-8.085 1.49-.502 2.705C16.207 135.595 16 137.816 16 140s.207 4.405.615 6.603l.502 2.705 8.085 1.49c.07.173.141.345.215.516l-4.666 6.773 1.558 2.267a36.025 36.025 0 0 0 9.338 9.337l2.268 1.558 6.77-4.663c.172.074.345.146.519.216l1.489 8.082 2.705.502c2.195.407 4.417.614 6.602.614s4.408-.207 6.603-.614l2.705-.502 1.49-8.086c.173-.07.345-.14.516-.214l6.773 4.665 2.267-1.558a36.017 36.017 0 0 0 9.338-9.337l1.557-2.268-4.664-6.773c.073-.17.144-.342.214-.515l8.085-1.49.502-2.705A36.26 36.26 0 0 0 88 140c0-2.186-.206-4.407-.614-6.602l-.502-2.705zm-6.995 11.77l-7.2 1.327-.71 2.324a20.807 20.807 0 0 1-1.53 3.686l-1.142 2.146 4.155 6.033a27.99 27.99 0 0 1-3.482 3.482l-6.033-4.155-2.146 1.143a20.807 20.807 0 0 1-3.687 1.53l-2.324.71-1.327 7.2c-1.65.148-3.275.148-4.924 0l-1.329-7.207-2.332-.706a20.279 20.279 0 0 1-3.677-1.527l-2.146-1.143-6.034 4.155a27.956 27.956 0 0 1-3.481-3.482l4.155-6.033-1.143-2.147a20.804 20.804 0 0 1-1.53-3.685l-.71-2.324-7.2-1.328a27.509 27.509 0 0 1 0-4.924l7.2-1.327.71-2.324a20.804 20.804 0 0 1 1.53-3.686l1.143-2.146-4.155-6.034a27.923 27.923 0 0 1 3.481-3.482l6.034 4.156 2.147-1.144a20.823 20.823 0 0 1 3.686-1.53l2.323-.71 1.328-7.2a27.282 27.282 0 0 1 4.924 0l1.327 7.2 2.323.71c1.268.388 2.51.903 3.687 1.53l2.146 1.144 6.034-4.156a27.956 27.956 0 0 1 3.482 3.482l-4.155 6.033 1.142 2.146a20.807 20.807 0 0 1 1.53 3.687l.71 2.324 7.2 1.327a27.49 27.49 0 0 1 0 4.924zM60 40c-8.822 0-16 7.178-16 16s7.178 16 16 16 16-7.178 16-16-7.178-16-16-16zm0 24c-4.411 0-8-3.589-8-8s3.589-8 8-8 8 3.589 8 8-3.589 8-8 8zm29.786 3.706l9.03-1.664.501-2.706c.453-2.442.683-4.91.683-7.336s-.23-4.894-.683-7.336l-.502-2.706-9.03-1.664a32.73 32.73 0 0 0-.447-1.078l5.21-7.563-1.558-2.268A40.01 40.01 0 0 0 82.614 23.01l-2.268-1.557-7.563 5.21a32.329 32.329 0 0 0-1.078-.448l-1.664-9.028-2.705-.503a39.94 39.94 0 0 0-14.674 0l-2.704.502-1.665 9.029a32.34 32.34 0 0 0-1.078.448l-7.564-5.21-2.267 1.557a40.01 40.01 0 0 0-10.376 10.376l-1.557 2.268 5.21 7.563c-.156.357-.306.716-.448 1.078l-9.03 1.664-.502 2.706C20.23 51.104 20 53.573 20 56s.23 4.896.682 7.336l.502 2.706 9.03 1.664c.142.362.292.721.448 1.078l-5.21 7.563 1.557 2.268A40.017 40.017 0 0 0 37.384 88.99l2.267 1.557 7.561-5.208c.36.158.72.307 1.082.45l1.664 9.025 2.704.502c2.44.453 4.909.683 7.337.683s4.897-.23 7.337-.683l2.705-.503 1.664-9.028c.361-.142.72-.292 1.077-.448l7.564 5.21 2.268-1.557A40.032 40.032 0 0 0 92.99 78.615l1.557-2.268-5.21-7.563c.156-.357.305-.717.448-1.078zm-5.016 8.548a32.037 32.037 0 0 1-4.516 4.516l-6.848-4.717-2.147 1.143a23.84 23.84 0 0 1-4.236 1.758l-2.324.71-1.506 8.173a31.359 31.359 0 0 1-6.386 0l-1.508-8.179-2.331-.707a23.297 23.297 0 0 1-4.228-1.755l-2.146-1.143-6.849 4.717a32.009 32.009 0 0 1-4.515-4.516l4.717-6.848-1.143-2.147a23.832 23.832 0 0 1-1.758-4.235l-.71-2.324-8.173-1.507C28.054 58.123 28 57.056 28 56s.055-2.124.163-3.193l8.173-1.507.71-2.324a23.833 23.833 0 0 1 1.758-4.235l1.143-2.147-4.717-6.848a31.957 31.957 0 0 1 4.515-4.516l6.85 4.717 2.146-1.143a23.832 23.832 0 0 1 4.235-1.758l2.324-.71 1.507-8.172a31.36 31.36 0 0 1 6.386 0l1.506 8.172 2.324.71a23.787 23.787 0 0 1 4.235 1.758l2.147 1.143 6.85-4.717a31.957 31.957 0 0 1 4.515 4.516l-4.717 6.848 1.143 2.146a23.884 23.884 0 0 1 1.757 4.236l.71 2.324 8.173 1.507c.11 1.07.164 2.138.164 3.193s-.055 2.123-.164 3.193L83.663 60.7l-.71 2.324a23.885 23.885 0 0 1-1.758 4.236l-1.143 2.146 4.717 6.848z" style="fill: #000000;"/></svg>
