<svg width="1174" height="276" viewBox="0 0 1174 276" fill="none" xmlns="http://www.w3.org/2000/svg">
<path d="M367.582 56.4L325.232 78.125C320.832 71.3417 315.882 66.4833 310.382 63.55C305.065 60.6167 298.099 59.15 289.482 59.15C273.165 59.15 265.007 64.1917 265.007 74.275C265.007 79.0417 267.024 82.8 271.057 85.55C275.09 88.1167 282.424 90.4083 293.057 92.425C319.824 97.375 338.432 103.15 348.882 109.75C364.282 119.65 371.982 135.05 371.982 155.95C371.982 176.667 365.107 192.617 351.357 203.8C337.79 214.8 318.265 220.3 292.782 220.3C250.799 220.3 221.832 205.908 205.882 177.125L251.257 155.125C258.59 170.708 271.882 178.5 291.132 178.5C300.299 178.5 307.357 177.033 312.307 174.1C317.44 170.983 320.007 166.767 320.007 161.45C320.007 156.683 317.899 152.925 313.682 150.175C309.465 147.242 302.315 144.858 292.232 143.025C266.932 138.075 249.424 132.758 239.707 127.075C223.024 117.725 214.682 101.958 214.682 79.775C214.682 60.3417 221.282 45.125 234.482 34.125C247.682 22.9417 265.832 17.35 288.932 17.35C325.232 17.35 351.449 30.3667 367.582 56.4ZM402.883 217V20.375H457.058V96.55L514.258 20.375H573.383L507.933 104.25L578.883 217H518.933L472.458 144.675L457.058 163.925V217H402.883ZM606.499 217V20.375H660.674V217H606.499ZM703.664 217V20.375H757.839V173.55H838.964V217H703.664ZM866.408 217V20.375H920.583V173.55H1001.71V217H866.408ZM1153.64 56.4L1111.29 78.125C1106.89 71.3417 1101.94 66.4833 1096.44 63.55C1091.12 60.6167 1084.16 59.15 1075.54 59.15C1059.22 59.15 1051.07 64.1917 1051.07 74.275C1051.07 79.0417 1053.08 82.8 1057.12 85.55C1061.15 88.1167 1068.48 90.4083 1079.12 92.425C1105.88 97.375 1124.49 103.15 1134.94 109.75C1150.34 119.65 1158.04 135.05 1158.04 155.95C1158.04 176.667 1151.17 192.617 1137.42 203.8C1123.85 214.8 1104.32 220.3 1078.84 220.3C1036.86 220.3 1007.89 205.908 991.942 177.125L1037.32 155.125C1044.65 170.708 1057.94 178.5 1077.19 178.5C1086.36 178.5 1093.42 177.033 1098.37 174.1C1103.5 170.983 1106.07 166.767 1106.07 161.45C1106.07 156.683 1103.96 152.925 1099.74 150.175C1095.52 147.242 1088.37 144.858 1078.29 143.025C1052.99 138.075 1035.48 132.758 1025.77 127.075C1009.08 117.725 1000.74 101.958 1000.74 79.775C1000.74 60.3417 1007.34 45.125 1020.54 34.125C1033.74 22.9417 1051.89 17.35 1074.99 17.35C1111.29 17.35 1137.51 30.3667 1153.64 56.4Z" fill="black"/>
<rect x="91.5904" y="22.0007" width="17.7273" height="195" rx="1" fill="#D9D9D9"/>
<circle cx="100.454" cy="63.3639" r="20.6819" fill="#007BC0"/>
<path d="M0 46.6365C0 46.0842 0.447715 45.6365 1 45.6365H64.0001C64.5524 45.6365 65.0001 46.0842 65.0001 46.6365V77.1365C65.0001 77.6888 64.5524 78.1365 64.0001 78.1365H1C0.447717 78.1365 0 77.6888 0 77.1365V46.6365Z" fill="#007BC0"/>
<path d="M64.9998 48.5909L70.9089 51.5455L64.9998 54.5V48.5909Z" fill="#007BC0"/>
<circle cx="100.454" cy="178.591" r="20.6819" fill="#9E2896"/>
<path d="M0 161.864C0 161.312 0.447715 160.864 1 160.864H64.0001C64.5524 160.864 65.0001 161.312 65.0001 161.864V192.364C65.0001 192.916 64.5524 193.364 64.0001 193.364H1C0.447717 193.364 0 192.916 0 192.364V161.864Z" fill="#9E2896"/>
<path d="M64.9998 163.818L70.9089 166.773L64.9998 169.727V163.818Z" fill="#9E2896"/>
<circle cx="100.454" cy="119.5" r="20.6819" fill="#18837E"/>
<path d="M197.954 108.682C197.954 108.13 197.507 107.682 196.954 107.682H133.954C133.402 107.682 132.954 108.13 132.954 108.682V139.182C132.954 139.735 133.402 140.182 133.954 140.182H196.954C197.507 140.182 197.954 139.735 197.954 139.182V108.682Z" fill="#18837E"/>
<path d="M132.954 110.637L127.045 113.591L132.954 116.546V110.637Z" fill="#18837E"/>
</svg>
