<?xml version="1.0" encoding="UTF-8"?>
<!-- Generator: Adobe Illustrator 24.0.1, SVG Export Plug-In . SVG Version: 6.00 Build 0)  -->
<svg xmlns="http://www.w3.org/2000/svg" xmlns:xlink="http://www.w3.org/1999/xlink" version="1.1" id="Icon_x5F_contour" x="0px" y="0px" viewBox="0 0 192 192" style="enable-background:new 0 0 192 192;" xml:space="preserve">
<path style="fill:#1D1D1B;fill: #18837e;" d="M150.43805,77.60797c8.0191-3.88947,13.56183-12.1131,13.56183-21.60797c0-13.23389-10.7666-24-24-24  s-23.99999,10.76611-23.99999,24c0,9.49939,5.54797,17.72656,13.57323,21.61377c-3.58605,1.10614-6.9428,2.73175-9.96075,4.81372  c1.8089,1.97827,3.37018,4.18512,4.64142,6.56952c4.48467-3.07001,9.90441-4.89868,15.74609-4.97211  c15.46094,0.19434,27.97754,12.66895,27.97754,27.9751h8.04492C176.02234,95.86121,165.24164,82.17578,150.43805,77.60797z   M123.99989,56c0-8.82227,7.17773-16,15.99999-16s16,7.17773,16,16s-7.17773,16-16,16S123.99989,64.82227,123.99989,56z   M106.43806,125.60797c8.0191-3.88947,13.56183-12.1131,13.56183-21.60797c0-13.23389-10.7666-24-24-24s-24,10.76611-24,24  c0,9.49487,5.54272,17.71851,13.56183,21.60797C70.75806,130.17578,59.97693,143.86121,59.97693,160h8.0459  c0-15.30615,12.51611-27.78076,27.97705-27.9751c15.46094,0.19434,27.97754,12.66895,27.97754,27.9751h8.04491  C132.02234,143.86121,121.24165,130.17578,106.43806,125.60797z M79.99989,104c0-8.82227,7.17773-16,16-16s16,7.17773,16,16  s-7.17773,16-16,16S79.99989,112.82227,79.99989,104z M72.38758,82.42725c-3.01788-2.08191-6.37457-3.70746-9.96058-4.81354  C70.45222,73.72644,75.99989,65.49933,75.99989,56c0-13.23389-10.76611-24-24-24s-24,10.76611-24,24  c0,9.49487,5.54254,17.71851,13.56165,21.60797C26.75769,82.17578,15.97693,95.86121,15.97693,112h8.0459  c0-15.30615,12.51611-27.78076,27.97705-27.9751c5.84167,0.07343,11.26141,1.9021,15.7461,4.97211  C69.01728,86.61249,70.57856,84.40558,72.38758,82.42725z M35.99988,56c0-8.82227,7.17773-16,16-16s16,7.17773,16,16  s-7.17774,16-16,16S35.99988,64.82227,35.99988,56z"/>
<g>
</g>
<g>
</g>
<g>
</g>
<g>
</g>
<g>
</g>
<g>
</g>
<g>
</g>
<g>
</g>
<g>
</g>
<g>
</g>
<g>
</g>
<g>
</g>
<g>
</g>
<g>
</g>
<g>
</g>
</svg>
