<?xml version="1.0" encoding="UTF-8"?>
<!-- Generator: Adobe Illustrator 23.0.1, SVG Export Plug-In . SVG Version: 6.00 Build 0)  -->
<svg xmlns="http://www.w3.org/2000/svg" xmlns:xlink="http://www.w3.org/1999/xlink" version="1.1" id="Icon_x5F_contour" x="0px" y="0px" viewBox="0 0 192 192" enable-background="new 0 0 192 192" xml:space="preserve">
<path d="M140,157.7l-10.8-10.8l5.7-5.7l5.2,5.2l13.2-13.2l5.7,5.7L140,157.7z M176,144c0,17.6-14.4,32-32,32s-32-14.4-32-32  s14.4-32,32-32S176,126.4,176,144z M168,144c0-13.2-10.8-24-24-24s-24,10.8-24,24c0,13.2,10.8,24,24,24S168,157.2,168,144z   M109.4,164H64.3c-14,0-26.4-7.8-32.5-20c-8.7-0.1-15.8-7.2-15.8-16c0-8.7,7.1-15.9,15.8-16c6.1-12.2,18.5-20,32.5-20l63.5,0  c10.3,0,19.5-5.4,24.5-14c-4.9-2.7-8.2-8-8.2-14c0-6,3.3-11.2,8.2-14c-5-8.6-14.2-14-24.5-14H47.5c-1.8,6.9-8,12-15.5,12  c-8.8,0-16-7.2-16-16s7.2-16,16-16c7.4,0,13.7,5.1,15.5,12h80.3c14,0,26.4,7.8,32.5,20c8.7,0.1,15.8,7.2,15.8,16  c0,8.7-7.1,15.9-15.8,16c-6.1,12.2-18.5,20-32.5,20l-63.5,0c-10.3,0-19.5,5.4-24.5,14c4.9,2.7,8.2,8,8.2,14c0,6-3.3,11.2-8.2,14  c5,8.6,14.2,14,24.5,14h41.6C106.7,158.8,107.9,161.5,109.4,164z M40,32c0-4.4-3.6-8-8-8s-8,3.6-8,8s3.6,8,8,8S40,36.4,40,32z   M160,72c4.4,0,8-3.6,8-8s-3.6-8-8-8s-8,3.6-8,8S155.6,72,160,72z M40,128c0-4.4-3.6-8-8-8s-8,3.6-8,8s3.6,8,8,8S40,132.4,40,128z" style="fill: #ffffff;"/>
</svg>
