<?xml version="1.0" encoding="UTF-8"?>
<!-- Generator: Adobe Illustrator 24.0.1, SVG Export Plug-In . SVG Version: 6.00 Build 0)  -->
<svg xmlns="http://www.w3.org/2000/svg" xmlns:xlink="http://www.w3.org/1999/xlink" version="1.1" id="Icon_x5F_contour" x="0px" y="0px" viewBox="0 0 192 192" style="enable-background:new 0 0 192 192;" xml:space="preserve">
<path d="M106.51282,101.56976C114.49133,97.66534,120,89.46509,120,80c0-13.23389-10.76611-24-24-24S72,66.76611,72,80  c0,9.46509,5.50867,17.66534,13.48718,21.56976C70.74976,106.07861,60,119.80573,60,136h8c0-15.43945,12.56055-28,28-28  s28,12.56055,28,28h8C132,119.80573,121.25024,106.07861,106.51282,101.56976z M80,80c0-8.82227,7.17773-16,16-16s16,7.17773,16,16  s-7.17773,16-16,16S80,88.82227,80,80z M58,96c0-8.82227-7.17773-16-16-16s-16,7.17773-16,16  c0,5.65497,2.95709,10.6225,7.39801,13.46887C23.27728,113.02832,16,122.6778,16,134v2h8v-2c0-9.92529,8.07471-18,18-18  c4.72107,0,9.24677,1.88611,12.58691,5.14447c0.94592-2.62891,2.13788-5.14001,3.54364-7.51111  c-2.26971-1.79205-4.82184-3.19739-7.54163-4.15656C55.03699,106.63177,58,101.6604,58,96z M42,88c4.41113,0,8,3.58887,8,8  s-3.58887,8-8,8s-8-3.58887-8-8S37.58887,88,42,88z M158.60199,109.46887C163.04291,106.6225,166,101.65497,166,96  c0-8.82227-7.17773-16-16-16s-16,7.17773-16,16c0,5.66034,2.96289,10.63171,7.41089,13.47675  c-2.71985,0.95911-5.27191,2.36438-7.54156,4.15643c1.40582,2.37109,2.59778,4.88232,3.54376,7.51135  C140.75287,117.88629,145.27838,116,150,116c9.92529,0,18,8.07471,18,18v2h8v-2  C176,122.6778,168.72272,113.02832,158.60199,109.46887z M150,88c4.41113,0,8,3.58887,8,8s-3.58887,8-8,8s-8-3.58887-8-8  S145.58887,88,150,88z" style="fill: #ffffff;"/>
<g>
</g>
<g>
</g>
<g>
</g>
<g>
</g>
<g>
</g>
<g>
</g>
<g>
</g>
<g>
</g>
<g>
</g>
<g>
</g>
<g>
</g>
<g>
</g>
<g>
</g>
<g>
</g>
<g>
</g>
</svg>
